<?xml version="1.0" encoding="UTF-8"?>
<!DOCTYPE svg PUBLIC "-//W3C//DTD SVG 1.1//EN" "http://www.w3.org/Graphics/SVG/1.1/DTD/svg11.dtd">
<!-- Creator: CorelDRAW X7 -->
<svg xmlns="http://www.w3.org/2000/svg" xml:space="preserve" width="208px" height="208px" version="1.1" style="shape-rendering:geometricPrecision; text-rendering:geometricPrecision; image-rendering:optimizeQuality; fill-rule:evenodd; clip-rule:evenodd"
viewBox="0 0 2080000 2080000"
 xmlns:xlink="http://www.w3.org/1999/xlink">
 <defs>
  <style type="text/css">
   <![CDATA[
    .fil0 {fill:#4057E3}
    .fil2 {fill:white}
    .fil1 {fill:white}
   ]]>
  </style>
 </defs>
 <g id="cool">
  <metadata id="CorelCorpID_0Corel-Layer"/>
  <circle class="fil0" cx="1040000" cy="1040000" r="994848"/>
  <path class="fil1" d="M1040000 0c574374,0 1040000,465626 1040000,1040000 0,574374 -465626,1040000 -1040000,1040000 -574374,0 -1040000,-465626 -1040000,-1040000 0,-574374 465626,-1040000 1040000,-1040000zm678923 361077c-173734,-173735 -413788,-281209 -678923,-281209 -265135,0 -505189,107474 -678923,281209 -173735,173734 -281209,413788 -281209,678923 0,265135 107474,505189 281209,678923 173734,173735 413788,281209 678923,281209 265135,0 505189,-107474 678923,-281209 173735,-173734 281209,-413788 281209,-678923 0,-265135 -107474,-505189 -281209,-678923z"/>
  <path class="fil2" d="M1040000 1798603c-418965,0 -758603,-339638 -758603,-758603 0,-418965 339638,-758603 758603,-758603 67263,0 132450,8785 194547,25223 -255289,21533 -455791,235538 -455791,496404 0,275159 223061,498220 498220,498220 260866,0 474871,-200502 496404,-455791 16438,62085 25223,127284 25223,194547 0,418965 -339638,758603 -758603,758603z"/>
 </g>
</svg>
