<?xml version="1.0" encoding="UTF-8"?>
<!DOCTYPE svg PUBLIC "-//W3C//DTD SVG 1.1//EN" "http://www.w3.org/Graphics/SVG/1.1/DTD/svg11.dtd">
<!-- Creator: CorelDRAW X7 -->
<svg xmlns="http://www.w3.org/2000/svg" xml:space="preserve" width="208px" height="208px" version="1.1" style="shape-rendering:geometricPrecision; text-rendering:geometricPrecision; image-rendering:optimizeQuality; fill-rule:evenodd; clip-rule:evenodd"
viewBox="0 0 2080000 2080000"
 xmlns:xlink="http://www.w3.org/1999/xlink">
 <defs>
  <style type="text/css">
   <![CDATA[
    .fil0 {fill:#FF345A}
    .fil2 {fill:white}
    .fil1 {fill:white}
   ]]>
  </style>
 </defs>
 <g id="power">
  <metadata id="CorelCorpID_0Corel-Layer"/>
  <circle class="fil0" cx="1040000" cy="1040000" r="997961"/>
  <path class="fil1" d="M1040000 0c574374,0 1040000,465626 1040000,1040000 0,574374 -465626,1040000 -1040000,1040000 -574374,0 -1040000,-465626 -1040000,-1040000 0,-574374 465626,-1040000 1040000,-1040000zm678923 361077c-173734,-173735 -413788,-281209 -678923,-281209 -265135,0 -505189,107474 -678923,281209 -173735,173734 -281209,413788 -281209,678923 0,265135 107474,505189 281209,678923 173734,173735 413788,281209 678923,281209 265135,0 505189,-107474 678923,-281209 173735,-173734 281209,-413788 281209,-678923 0,-265135 -107474,-505189 -281209,-678923z"/>
  <path class="fil2" d="M1041474 1909591c-438893,495 -669407,-362091 -672473,-670621 -2677,-268697 108052,-468858 242648,-490803 -93595,171600 -60117,252058 -10967,298177 202814,-106082 259664,-514399 194147,-765560 363470,151305 475130,543030 641282,658464 90482,-56178 149761,-131047 149761,-244146 99550,67640 169984,318200 158004,559327 -15165,304911 -263509,654667 -702402,655162z"/>
  <path class="fil0" d="M1040000 1831114c-173463,0 -259322,-123252 -259322,-268355 0,-163817 235915,-173097 175704,-354084 343211,112309 376854,297553 376854,355110 0,157544 -119773,267329 -293236,267329z"/>
 </g>
</svg>
