<?xml version="1.0" encoding="UTF-8"?>
<!DOCTYPE svg PUBLIC "-//W3C//DTD SVG 1.1//EN" "http://www.w3.org/Graphics/SVG/1.1/DTD/svg11.dtd">
<!-- Creator: CorelDRAW X7 -->
<svg xmlns="http://www.w3.org/2000/svg" xml:space="preserve" width="208px" height="208px" version="1.1" style="shape-rendering:geometricPrecision; text-rendering:geometricPrecision; image-rendering:optimizeQuality; fill-rule:evenodd; clip-rule:evenodd"
viewBox="0 0 2080000 2080000"
 xmlns:xlink="http://www.w3.org/1999/xlink">
 <defs>
  <style type="text/css">
   <![CDATA[
    .fil0 {fill:#44C527}
    .fil1 {fill:white}
   ]]>
  </style>
 </defs>
 <g id="pure">
  <metadata id="CorelCorpID_0Corel-Layer"/>
  <circle class="fil0" cx="1040000" cy="1040000" r="1007725"/>
  <path class="fil1" d="M1040000 0c574374,0 1040000,465626 1040000,1040000 0,574374 -465626,1040000 -1040000,1040000 -574374,0 -1040000,-465626 -1040000,-1040000 0,-574374 465626,-1040000 1040000,-1040000zm678923 361077c-173734,-173735 -413788,-281209 -678923,-281209 -265135,0 -505189,107474 -678923,281209 -173735,173734 -281209,413788 -281209,678923 0,265135 107474,505189 281209,678923 173734,173735 413788,281209 678923,281209 265135,0 505189,-107474 678923,-281209 173735,-173734 281209,-413788 281209,-678923 0,-265135 -107474,-505189 -281209,-678923z"/>
  <path class="fil1" d="M301385 1040000c374201,69444 669159,364414 738615,738615 69456,-374201 364414,-669171 738615,-738615 -374201,-69444 -669159,-364414 -738615,-738615 -69456,374201 -364414,669171 -738615,738615z"/>
 </g>
</svg>
